<svg width="160" height="26" viewBox="0 0 160 26" fill="none" xmlns="http://www.w3.org/2000/svg">
<g clip-path="url(#clip0_451_1305)">
<path fill-rule="evenodd" clip-rule="evenodd" d="M3.41782 0.0331013C2.51293 0.0381704 1.64656 0.397646 1.00669 1.03353C0.366829 1.66941 0.00510082 2.53039 0 3.42964V25.4446H22.1529C22.6043 25.4439 23.0512 25.3545 23.4677 25.1815C23.8842 25.0085 24.2622 24.7553 24.5799 24.4365C24.8975 24.1177 25.1486 23.7397 25.3187 23.3241C25.4887 22.9085 25.5744 22.4636 25.5707 22.015V0H3.41782V0.0331013ZM19.6224 18.3564L5.98165 20.8068V7.15352L19.6215 4.70404L19.6224 18.3564Z" fill="#0855C4"/>
<path d="M69.35 7.4147C65.3401 7.4147 62.4811 10.289 62.4478 14.9921C62.4374 15.8988 62.6083 16.7986 62.9507 17.6391C63.293 18.4796 63.8 19.2442 64.4422 19.8884C65.0843 20.5326 65.8488 21.0437 66.6913 21.3919C67.5339 21.74 68.4376 21.9184 69.35 21.9167C71.4207 21.9167 72.7355 21.5902 73.4581 20.9696V18.6185C72.3732 19.0988 71.1943 19.3331 70.007 19.3044C67.8373 19.3044 66.1284 18.1284 65.8323 16.2702L65.799 16.1065H68.3295C70.0597 16.2279 71.7961 15.9828 73.4239 15.3875C73.916 15.1689 74.3266 14.8023 74.5978 14.3394C74.8691 13.8765 74.9873 13.3406 74.9357 12.8074C74.9475 12.0825 74.8097 11.3629 74.5309 10.693C74.2521 10.023 73.8382 9.41692 73.3147 8.91201C72.7912 8.4071 72.1692 8.01409 71.487 7.7572C70.8048 7.50032 70.0769 7.38501 69.3482 7.41838M70.9914 13.5265C69.886 13.8047 68.7446 13.9147 67.606 13.8529H65.8628V13.6892L65.8961 13.1991C65.9006 12.3659 66.2334 11.5675 66.8232 10.9752C67.413 10.3829 68.2128 10.0438 69.0512 10.0306C69.7819 10.0005 70.5043 10.193 71.1219 10.5823C71.3813 10.7813 71.5885 11.0396 71.7259 11.3353C71.8633 11.631 71.9268 11.9553 71.9111 12.2806C71.9317 12.5625 71.8503 12.8426 71.6815 13.0702C71.5127 13.2978 71.2676 13.4579 70.9905 13.5219M76.7094 12.8028V21.6215H79.9958V13.4244C79.9296 12.5676 80.1615 11.7142 80.6527 11.0071C80.9004 10.7467 81.2032 10.5443 81.5392 10.4144C81.8752 10.2845 82.2361 10.2303 82.5957 10.2559C82.8926 10.2589 83.1889 10.2807 83.483 10.3212V7.70893C82.9555 7.47789 82.3828 7.36639 81.8065 7.38252C78.1583 7.41562 76.7121 9.99567 76.7121 12.8074M33.2946 21.6233H36.581V3.85449H33.2946V21.6233ZM45.4558 7.4147C41.0517 7.4147 39.1448 10.4195 39.1124 13.3591V21.6224H42.3989V13.5881C42.351 12.7084 42.6189 11.8404 43.1548 11.1386C43.3997 10.85 43.7076 10.6207 44.0549 10.4679C44.4023 10.3151 44.7801 10.2429 45.1598 10.2568C45.5753 10.2254 45.9925 10.2885 46.3799 10.4413C46.7672 10.5941 47.1144 10.8325 47.3951 11.1386C47.98 11.9172 48.2605 12.8805 48.1844 13.8492V21.6555H51.4708V13.5228C51.5316 12.7164 51.4189 11.9065 51.14 11.1469C50.8611 10.3872 50.4225 9.6954 49.8534 9.11745C49.2844 8.5395 48.5979 8.0887 47.8398 7.79509C47.0817 7.50148 46.2684 7.3718 45.4558 7.4147ZM57.2878 3.85449H54.0337V16.6913C54.067 19.9573 55.7102 21.8845 59.2594 21.8845C60.7713 21.8845 61.6919 21.3944 62.0536 20.611V18.5882C61.2972 18.8656 60.4921 18.9879 59.6869 18.9477C59.3642 18.9689 59.0406 18.9248 58.7356 18.8181C58.4305 18.7114 58.1505 18.5444 57.9123 18.327C57.4442 17.7472 57.2203 17.0096 57.2878 16.2692V10.2568H60.1477C61.5281 10.2568 62.1193 9.37502 62.1193 8.72127V7.4147H57.2878V3.85449Z" fill="#0855C4"/>
<path d="M107.609 15.3185C108.101 15.0999 108.511 14.7333 108.783 14.2704C109.054 13.8075 109.172 13.2717 109.12 12.7385C109.12 12.0158 108.972 11.3007 108.686 10.6362C108.401 9.97157 107.983 9.37115 107.458 8.8709C106.933 8.37065 106.312 7.98089 105.632 7.72498C104.952 7.46907 104.227 7.35228 103.5 7.38162C99.4905 7.38162 96.6315 10.2559 96.5982 14.959C96.5878 15.8657 96.7587 16.7655 97.1011 17.606C97.4435 18.4466 97.9504 19.2111 98.5926 19.8554C99.2347 20.4996 99.9993 21.0106 100.842 21.3588C101.684 21.707 102.588 21.8854 103.5 21.8836C105.571 21.8836 106.886 21.5572 107.642 20.9365V18.5854C106.557 19.0657 105.378 19.3 104.191 19.2714C102.021 19.2714 100.312 18.0953 100.016 16.2371L99.9827 16.0734H102.513C104.246 16.1867 105.984 15.9293 107.609 15.3185ZM100.016 13.8474V13.6837L100.048 13.1936C100.053 12.3604 100.386 11.562 100.976 10.9697C101.565 10.3774 102.365 10.0383 103.203 10.0251C103.934 9.99501 104.657 10.1875 105.274 10.5768C105.534 10.7758 105.741 11.0342 105.878 11.3298C106.016 11.6255 106.079 11.9498 106.063 12.2751C106.074 12.5512 105.988 12.8224 105.82 13.0427C105.653 13.263 105.413 13.4186 105.143 13.4833C104.037 13.7615 102.896 13.8715 101.757 13.8097H100.015L100.016 13.8474Z" fill="#0855C4"/>
<path d="M139.458 12.8066V21.6252H142.778V13.4244C142.712 12.5676 142.944 11.7142 143.435 11.0071C143.683 10.7468 143.986 10.5443 144.322 10.4144C144.658 10.2845 145.019 10.2303 145.378 10.2559C145.675 10.259 145.972 10.2808 146.266 10.3212V7.70807C145.738 7.47703 145.166 7.36553 144.589 7.38166C140.941 7.41476 139.495 9.99481 139.462 12.8066" fill="#0855C4"/>
<path d="M89.5646 21.8174C87.1655 21.8174 85.3576 20.5108 85.3576 19.1067V17.54H85.489C86.6184 18.4041 88.008 18.8644 89.4333 18.8465C91.0441 18.8465 91.8 18.3564 91.8 17.3441C91.8 16.5598 91.3374 16.1681 89.0724 15.8417C86.3115 15.4169 84.9644 14.274 84.9644 12.1831C84.9644 9.60305 87.1664 7.38159 90.5158 7.38159C93.4765 7.38159 94.6904 8.9824 94.6904 10.3239V11.6305H94.5591C93.5126 10.7581 92.1767 10.3042 90.8118 10.357C88.8069 10.357 88.1823 11.0098 88.1823 11.8925C88.1823 12.5785 88.5765 12.8727 90.8118 13.2644C93.5394 13.7241 94.9856 14.9958 94.9856 17.1841C95.0189 20.0915 93.0796 21.8219 89.5628 21.8219" fill="#0855C4"/>
<path d="M122.63 17.6704C122.663 18.2221 122.695 18.9769 122.695 19.4339C122.695 22.8958 120.493 25.999 116.286 25.999C113.591 25.999 111.753 24.6271 111.753 22.9647V21.3906H111.884C112.434 21.91 113.085 22.3114 113.798 22.5699C114.51 22.8283 115.268 22.9383 116.025 22.893C118.392 22.893 119.443 21.717 119.443 19.7245C119.448 19.4843 119.437 19.2442 119.41 19.0055C119.41 18.8096 119.378 18.4538 119.378 18.3195V17.9977C119.11 18.6562 118.637 19.2118 118.027 19.5823C117.417 19.9529 116.704 20.1188 115.992 20.0555C115.257 20.0722 114.526 19.9378 113.845 19.6609C113.165 19.384 112.549 18.9704 112.036 18.4461C111.524 17.9218 111.126 17.298 110.867 16.6137C110.609 15.9295 110.495 15.1996 110.533 14.4697C110.533 10.5831 112.966 7.41455 117.173 7.41455C120.427 7.41455 122.53 9.92931 122.53 13.4895V15.8415C122.601 16.4485 122.634 17.0593 122.629 17.6704M113.919 14.0118C113.919 15.8406 114.971 17.1803 116.548 17.1803C118.191 17.1803 119.375 15.8737 119.375 13.6523C119.375 11.4639 118.357 10.4185 116.91 10.4185C115.201 10.4185 113.919 11.9209 113.919 14.0118Z" fill="#0855C4"/>
<path d="M153.657 7.34937C157.667 7.34937 160 10.6806 160 14.3723C160 18.5201 157.699 21.8522 153.36 21.8522C149.351 21.8522 147.017 18.5532 147.017 14.8642C147.05 10.6834 149.351 7.35212 153.657 7.35212M153.36 10.2595C151.356 10.2595 150.369 11.9578 150.369 14.342C150.369 17.2163 151.387 18.9145 153.689 18.9145C155.694 18.9145 156.68 17.1832 156.68 14.8321C156.68 11.9578 155.628 10.2595 153.36 10.2595Z" fill="#0855C4"/>
<path d="M130.913 21.9175C135.284 21.9175 137.224 18.9126 137.224 15.9731V7.64355H133.969V15.7441C134.017 16.6238 133.749 17.4918 133.214 18.1936C132.969 18.4822 132.661 18.7115 132.313 18.8643C131.966 19.0171 131.588 19.0893 131.209 19.0754C130.793 19.1068 130.376 19.0437 129.988 18.8909C129.601 18.7381 129.254 18.4997 128.973 18.1936C128.388 17.4149 128.108 16.4517 128.184 15.483V7.64355H124.931V15.7763C124.898 19.7613 127.593 21.9175 130.913 21.9175Z" fill="#0855C4"/>
</g>
<defs>
<clipPath id="clip0_451_1305">
<rect width="160" height="26" fill="white"/>
</clipPath>
</defs>
</svg>
